<mxfile host="65bd71144e">
    <diagram name="第 1 页" id="-0GU8m_k6vCe-eJ1rb-p">
        <mxGraphModel dx="857" dy="766" grid="1" gridSize="10" guides="1" tooltips="1" connect="1" arrows="1" fold="1" page="1" pageScale="1" pageWidth="827" pageHeight="1169" math="0" shadow="0">
            <root>
                <mxCell id="0"/>
                <mxCell id="1" parent="0"/>
                <mxCell id="PUAvz89jBmfV9ptTGcWS-6" value="Thread 1" style="swimlane;fontStyle=1;align=center;verticalAlign=top;childLayout=stackLayout;horizontal=1;startSize=26;horizontalStack=0;resizeParent=1;resizeParentMax=0;resizeLast=0;collapsible=1;marginBottom=0;whiteSpace=wrap;html=1;fontFamily=Verdana;fontSize=10;fillColor=#fff2cc;strokeColor=#d6b656;movable=0;resizable=0;rotatable=0;deletable=0;editable=0;connectable=0;" parent="1" vertex="1">
                    <mxGeometry x="180" y="310" width="100" height="78" as="geometry"/>
                </mxCell>
                <mxCell id="PUAvz89jBmfV9ptTGcWS-7" value="General Tag" style="text;strokeColor=#d6b656;fillColor=#fff2cc;align=center;verticalAlign=top;spacingLeft=4;spacingRight=4;overflow=hidden;rotatable=0;points=[[0,0.5],[1,0.5]];portConstraint=eastwest;whiteSpace=wrap;html=1;fontFamily=Verdana;fontSize=10;movable=0;resizable=0;deletable=0;editable=0;connectable=0;" parent="PUAvz89jBmfV9ptTGcWS-6" vertex="1">
                    <mxGeometry y="26" width="100" height="26" as="geometry"/>
                </mxCell>
                <mxCell id="PUAvz89jBmfV9ptTGcWS-9" value="All-Thread Tag" style="text;strokeColor=#d6b656;fillColor=#fff2cc;align=center;verticalAlign=top;spacingLeft=4;spacingRight=4;overflow=hidden;rotatable=0;points=[[0,0.5],[1,0.5]];portConstraint=eastwest;whiteSpace=wrap;html=1;fontFamily=Verdana;fontSize=10;movable=0;resizable=0;deletable=0;editable=0;connectable=0;" parent="PUAvz89jBmfV9ptTGcWS-6" vertex="1">
                    <mxGeometry y="52" width="100" height="26" as="geometry"/>
                </mxCell>
                <mxCell id="PUAvz89jBmfV9ptTGcWS-15" value="Thread 2" style="swimlane;fontStyle=1;align=center;verticalAlign=top;childLayout=stackLayout;horizontal=1;startSize=26;horizontalStack=0;resizeParent=1;resizeParentMax=0;resizeLast=0;collapsible=1;marginBottom=0;whiteSpace=wrap;html=1;fontFamily=Verdana;fontSize=10;fillColor=#fff2cc;strokeColor=#d6b656;movable=0;resizable=0;rotatable=0;deletable=0;editable=0;connectable=0;" parent="1" vertex="1">
                    <mxGeometry x="300" y="310" width="100" height="78" as="geometry"/>
                </mxCell>
                <mxCell id="PUAvz89jBmfV9ptTGcWS-16" value="General Tag" style="text;strokeColor=#d6b656;fillColor=#fff2cc;align=center;verticalAlign=top;spacingLeft=4;spacingRight=4;overflow=hidden;rotatable=0;points=[[0,0.5],[1,0.5]];portConstraint=eastwest;whiteSpace=wrap;html=1;fontFamily=Verdana;fontSize=10;movable=0;resizable=0;deletable=0;editable=0;connectable=0;" parent="PUAvz89jBmfV9ptTGcWS-15" vertex="1">
                    <mxGeometry y="26" width="100" height="26" as="geometry"/>
                </mxCell>
                <mxCell id="PUAvz89jBmfV9ptTGcWS-18" value="All-Thread Tag" style="text;strokeColor=#d6b656;fillColor=#fff2cc;align=center;verticalAlign=top;spacingLeft=4;spacingRight=4;overflow=hidden;rotatable=0;points=[[0,0.5],[1,0.5]];portConstraint=eastwest;whiteSpace=wrap;html=1;fontFamily=Verdana;fontSize=10;movable=0;resizable=0;deletable=0;editable=0;connectable=0;" parent="PUAvz89jBmfV9ptTGcWS-15" vertex="1">
                    <mxGeometry y="52" width="100" height="26" as="geometry"/>
                </mxCell>
                <mxCell id="PUAvz89jBmfV9ptTGcWS-20" value="Thread 3" style="swimlane;fontStyle=1;align=center;verticalAlign=top;childLayout=stackLayout;horizontal=1;startSize=26;horizontalStack=0;resizeParent=1;resizeParentMax=0;resizeLast=0;collapsible=1;marginBottom=0;whiteSpace=wrap;html=1;fontFamily=Verdana;fontSize=10;fillColor=#fff2cc;strokeColor=#d6b656;movable=0;resizable=0;rotatable=0;deletable=0;editable=0;connectable=0;" parent="1" vertex="1">
                    <mxGeometry x="440" y="310" width="100" height="78" as="geometry"/>
                </mxCell>
                <mxCell id="PUAvz89jBmfV9ptTGcWS-21" value="General Tag" style="text;strokeColor=#d6b656;fillColor=#fff2cc;align=center;verticalAlign=top;spacingLeft=4;spacingRight=4;overflow=hidden;rotatable=0;points=[[0,0.5],[1,0.5]];portConstraint=eastwest;whiteSpace=wrap;html=1;fontFamily=Verdana;fontSize=10;movable=0;resizable=0;deletable=0;editable=0;connectable=0;" parent="PUAvz89jBmfV9ptTGcWS-20" vertex="1">
                    <mxGeometry y="26" width="100" height="26" as="geometry"/>
                </mxCell>
                <mxCell id="PUAvz89jBmfV9ptTGcWS-23" value="All-Thread Tag" style="text;strokeColor=#d6b656;fillColor=#fff2cc;align=center;verticalAlign=top;spacingLeft=4;spacingRight=4;overflow=hidden;rotatable=0;points=[[0,0.5],[1,0.5]];portConstraint=eastwest;whiteSpace=wrap;html=1;fontFamily=Verdana;fontSize=10;movable=0;resizable=0;deletable=0;editable=0;connectable=0;" parent="PUAvz89jBmfV9ptTGcWS-20" vertex="1">
                    <mxGeometry y="52" width="100" height="26" as="geometry"/>
                </mxCell>
                <mxCell id="PUAvz89jBmfV9ptTGcWS-25" value="Ready Threads" style="swimlane;fontStyle=1;align=center;verticalAlign=top;childLayout=stackLayout;horizontal=1;startSize=26;horizontalStack=0;resizeParent=1;resizeParentMax=0;resizeLast=0;collapsible=1;marginBottom=0;whiteSpace=wrap;html=1;fontFamily=Verdana;fontSize=10;fillColor=#d5e8d4;strokeColor=#82b366;movable=0;resizable=0;rotatable=0;deletable=0;editable=0;connectable=0;" parent="1" vertex="1">
                    <mxGeometry x="230" y="210" width="120" height="78" as="geometry"/>
                </mxCell>
                <mxCell id="PUAvz89jBmfV9ptTGcWS-26" value="Head" style="text;strokeColor=#82b366;fillColor=#d5e8d4;align=center;verticalAlign=top;spacingLeft=4;spacingRight=4;overflow=hidden;rotatable=0;points=[[0,0.5],[1,0.5]];portConstraint=eastwest;whiteSpace=wrap;html=1;fontFamily=Verdana;fontSize=10;movable=0;resizable=0;deletable=0;editable=0;connectable=0;" parent="PUAvz89jBmfV9ptTGcWS-25" vertex="1">
                    <mxGeometry y="26" width="120" height="26" as="geometry"/>
                </mxCell>
                <mxCell id="PUAvz89jBmfV9ptTGcWS-28" value="Tail" style="text;strokeColor=#82b366;fillColor=#d5e8d4;align=center;verticalAlign=top;spacingLeft=4;spacingRight=4;overflow=hidden;rotatable=0;points=[[0,0.5],[1,0.5]];portConstraint=eastwest;whiteSpace=wrap;html=1;fontFamily=Verdana;fontSize=10;movable=0;resizable=0;deletable=0;editable=0;connectable=0;" parent="PUAvz89jBmfV9ptTGcWS-25" vertex="1">
                    <mxGeometry y="52" width="120" height="26" as="geometry"/>
                </mxCell>
                <mxCell id="PUAvz89jBmfV9ptTGcWS-29" value="All Threads" style="swimlane;fontStyle=1;align=center;verticalAlign=top;childLayout=stackLayout;horizontal=1;startSize=26;horizontalStack=0;resizeParent=1;resizeParentMax=0;resizeLast=0;collapsible=1;marginBottom=0;whiteSpace=wrap;html=1;fontFamily=Verdana;fontSize=10;fillColor=#dae8fc;strokeColor=#6c8ebf;movable=0;resizable=0;rotatable=0;deletable=0;editable=0;connectable=0;" parent="1" vertex="1">
                    <mxGeometry x="300" y="410" width="100" height="78" as="geometry"/>
                </mxCell>
                <mxCell id="PUAvz89jBmfV9ptTGcWS-30" value="Head" style="text;strokeColor=#6c8ebf;fillColor=#dae8fc;align=center;verticalAlign=top;spacingLeft=4;spacingRight=4;overflow=hidden;rotatable=0;points=[[0,0.5],[1,0.5]];portConstraint=eastwest;whiteSpace=wrap;html=1;fontFamily=Verdana;fontSize=10;movable=0;resizable=0;deletable=0;editable=0;connectable=0;" parent="PUAvz89jBmfV9ptTGcWS-29" vertex="1">
                    <mxGeometry y="26" width="100" height="26" as="geometry"/>
                </mxCell>
                <mxCell id="PUAvz89jBmfV9ptTGcWS-32" value="Tail" style="text;strokeColor=#6c8ebf;fillColor=#dae8fc;align=center;verticalAlign=top;spacingLeft=4;spacingRight=4;overflow=hidden;rotatable=0;points=[[0,0.5],[1,0.5]];portConstraint=eastwest;whiteSpace=wrap;html=1;fontFamily=Verdana;fontSize=10;movable=0;resizable=0;deletable=0;editable=0;connectable=0;" parent="PUAvz89jBmfV9ptTGcWS-29" vertex="1">
                    <mxGeometry y="52" width="100" height="26" as="geometry"/>
                </mxCell>
                <mxCell id="PUAvz89jBmfV9ptTGcWS-37" style="edgeStyle=orthogonalEdgeStyle;rounded=1;orthogonalLoop=1;jettySize=auto;html=1;entryX=0;entryY=0.5;entryDx=0;entryDy=0;fontFamily=Verdana;movable=0;resizable=0;rotatable=0;deletable=0;editable=0;connectable=0;" parent="1" source="PUAvz89jBmfV9ptTGcWS-26" target="PUAvz89jBmfV9ptTGcWS-7" edge="1">
                    <mxGeometry relative="1" as="geometry">
                        <Array as="points">
                            <mxPoint x="150" y="250"/>
                            <mxPoint x="150" y="349"/>
                        </Array>
                    </mxGeometry>
                </mxCell>
                <mxCell id="PUAvz89jBmfV9ptTGcWS-39" style="edgeStyle=orthogonalEdgeStyle;rounded=0;orthogonalLoop=1;jettySize=auto;html=1;entryX=0;entryY=0.5;entryDx=0;entryDy=0;fontFamily=Verdana;fillColor=#fff2cc;strokeColor=default;movable=0;resizable=0;rotatable=0;deletable=0;editable=0;connectable=0;" parent="1" source="PUAvz89jBmfV9ptTGcWS-7" target="PUAvz89jBmfV9ptTGcWS-16" edge="1">
                    <mxGeometry relative="1" as="geometry"/>
                </mxCell>
                <mxCell id="PUAvz89jBmfV9ptTGcWS-46" style="edgeStyle=orthogonalEdgeStyle;rounded=1;orthogonalLoop=1;jettySize=auto;html=1;exitX=0;exitY=0.5;exitDx=0;exitDy=0;entryX=0;entryY=0.5;entryDx=0;entryDy=0;fontFamily=Verdana;movable=0;resizable=0;rotatable=0;deletable=0;editable=0;connectable=0;" parent="1" source="PUAvz89jBmfV9ptTGcWS-30" target="PUAvz89jBmfV9ptTGcWS-9" edge="1">
                    <mxGeometry relative="1" as="geometry">
                        <Array as="points">
                            <mxPoint x="150" y="449"/>
                            <mxPoint x="150" y="375"/>
                        </Array>
                    </mxGeometry>
                </mxCell>
                <mxCell id="PUAvz89jBmfV9ptTGcWS-47" style="edgeStyle=orthogonalEdgeStyle;rounded=0;orthogonalLoop=1;jettySize=auto;html=1;exitX=1;exitY=0.5;exitDx=0;exitDy=0;entryX=0;entryY=0.5;entryDx=0;entryDy=0;fontFamily=Verdana;fillColor=#fff2cc;strokeColor=default;movable=0;resizable=0;rotatable=0;deletable=0;editable=0;connectable=0;" parent="1" source="PUAvz89jBmfV9ptTGcWS-9" target="PUAvz89jBmfV9ptTGcWS-18" edge="1">
                    <mxGeometry relative="1" as="geometry"/>
                </mxCell>
                <mxCell id="PUAvz89jBmfV9ptTGcWS-48" style="edgeStyle=orthogonalEdgeStyle;rounded=0;orthogonalLoop=1;jettySize=auto;html=1;exitX=1;exitY=0.5;exitDx=0;exitDy=0;entryX=0;entryY=0.5;entryDx=0;entryDy=0;fontFamily=Verdana;fillColor=#fff2cc;strokeColor=default;movable=0;resizable=0;rotatable=0;deletable=0;editable=0;connectable=0;" parent="1" source="PUAvz89jBmfV9ptTGcWS-18" target="PUAvz89jBmfV9ptTGcWS-23" edge="1">
                    <mxGeometry relative="1" as="geometry"/>
                </mxCell>
                <mxCell id="PUAvz89jBmfV9ptTGcWS-49" style="edgeStyle=orthogonalEdgeStyle;rounded=1;orthogonalLoop=1;jettySize=auto;html=1;exitX=1;exitY=0.5;exitDx=0;exitDy=0;entryX=1;entryY=0.5;entryDx=0;entryDy=0;fontFamily=Verdana;movable=0;resizable=0;rotatable=0;deletable=0;editable=0;connectable=0;" parent="1" source="PUAvz89jBmfV9ptTGcWS-23" target="PUAvz89jBmfV9ptTGcWS-32" edge="1">
                    <mxGeometry relative="1" as="geometry"/>
                </mxCell>
                <mxCell id="PUAvz89jBmfV9ptTGcWS-52" style="edgeStyle=orthogonalEdgeStyle;rounded=1;orthogonalLoop=1;jettySize=auto;html=1;exitX=1;exitY=0.5;exitDx=0;exitDy=0;entryX=1;entryY=0.5;entryDx=0;entryDy=0;fontFamily=Verdana;movable=0;resizable=0;rotatable=0;deletable=0;editable=0;connectable=0;" parent="1" source="PUAvz89jBmfV9ptTGcWS-16" target="PUAvz89jBmfV9ptTGcWS-28" edge="1">
                    <mxGeometry relative="1" as="geometry">
                        <Array as="points">
                            <mxPoint x="420" y="349"/>
                            <mxPoint x="420" y="275"/>
                        </Array>
                    </mxGeometry>
                </mxCell>
            </root>
        </mxGraphModel>
    </diagram>
</mxfile>